<?xml version="1.0" encoding="utf-8"?>
<!-- Generator: Adobe Illustrator 16.0.0, SVG Export Plug-In . SVG Version: 6.00 Build 0)  -->
<!DOCTYPE svg PUBLIC "-//W3C//DTD SVG 1.1//EN" "http://www.w3.org/Graphics/SVG/1.1/DTD/svg11.dtd">
<svg version="1.1" id="Layer_1" xmlns="http://www.w3.org/2000/svg" xmlns:xlink="http://www.w3.org/1999/xlink" x="0px" y="0px"
	 width="300px" height="300px" viewBox="0 0 300 300" enable-background="new 0 0 300 300" xml:space="preserve">
<rect fill="#838384" width="300" height="300"/>
<g>
	<path fill="#FFFFFF" d="M76.585,55.375c0-1.65,1.32-2.42,2.641-2.42h17.16c12.649,0,22.55,3.08,22.55,18.48
		c0,9.46-3.74,15.95-9.35,18.37c6.819,2.86,11.33,7.81,11.33,19.14v1.98c0,16.609-9.461,22.439-21.671,22.439h-20.02
		c-1.65,0-2.641-1.1-2.641-2.311V55.375z M82.085,87.275h14.851c11.22,0,16.5-3.74,16.5-15.4c0-11.33-7.04-13.64-16.94-13.64h-14.41
		V87.275z M98.806,128.085c10.34,0,16.61-5.28,16.61-17.38v-1.87c0-12.1-6.271-16.5-16.61-16.5H82.085v35.75H98.806z"/>
	<path fill="#FFFFFF" d="M172.945,130.945c0-0.221,0-0.439,0.109-0.66l23.541-76.01c0.439-1.32,1.648-1.98,3.08-1.98
		c1.318,0,2.639,0.66,3.08,1.98l23.318,76.01c0,0.221,0.111,0.33,0.111,0.66c0,1.32-1.65,2.42-3.191,2.42
		c-0.988,0-1.869-0.439-2.199-1.65l-5.391-17.49h-31.68l-5.279,17.49c-0.441,1.211-1.32,1.65-2.42,1.65
		C174.596,133.365,172.945,132.485,172.945,130.945z M213.865,109.165l-14.189-46.97l-14.521,46.97H213.865z"/>
	<path fill="#FFFFFF" d="M98.256,181.234c-11,0-16.94,5.61-16.94,17.82v34.871c0,12.319,5.94,17.819,17.27,17.819
		c13.86,0,15.181-8.47,16.061-13.97c0.11-1.32,0.771-2.311,2.64-2.311c1.87,0,2.86,0.66,2.86,3.74c0,9.13-7.92,17.82-22.22,17.82
		c-12.101,0-22.11-6.27-22.11-23.1v-34.871c0-16.83,10.229-23.1,22.44-23.1c14.189,0,21.89,8.58,21.89,17.82
		c0,2.97-0.99,3.629-2.75,3.629c-2.2,0-2.75-1.209-2.75-2.31C114.316,190.035,111.896,181.234,98.256,181.234z"/>
	<path fill="#FFFFFF" d="M178.994,178.265c0-1.649,1.432-2.31,2.75-2.31c1.432,0,2.75,0.66,2.75,2.31v41.141l33.771-42.57
		c0.439-0.66,1.209-0.88,1.869-0.88c1.43,0,2.971,1.43,2.971,2.859c0,0.44-0.109,0.99-0.551,1.32l-24.529,30.58l27.721,41.801
		c0.33,0.33,0.439,0.77,0.439,1.209c0,1.431-1.541,2.75-3.08,2.75c-0.77,0-1.541-0.439-2.09-1.319l-26.621-39.82l-9.9,12.32v26.29
		c0,1.65-1.318,2.42-2.75,2.42c-1.318,0-2.75-0.77-2.75-2.42V178.265z"/>
</g>
</svg>
