<?xml version="1.0" encoding="utf-8"?>
<!-- Generator: Adobe Illustrator 16.0.0, SVG Export Plug-In . SVG Version: 6.00 Build 0)  -->
<!DOCTYPE svg PUBLIC "-//W3C//DTD SVG 1.1//EN" "http://www.w3.org/Graphics/SVG/1.1/DTD/svg11.dtd">
<svg version="1.1" id="Layer_1" xmlns="http://www.w3.org/2000/svg" xmlns:xlink="http://www.w3.org/1999/xlink" x="0px" y="0px"
	 width="300px" height="300px" viewBox="0 0 300 300" enable-background="new 0 0 300 300" xml:space="preserve">
<rect fill="#9FC5E7" width="300" height="300"/>
<g>
	<path fill="#FFFFFF" d="M76.466,55.215c0-1.65,1.32-2.42,2.64-2.42h39.05c1.54,0,2.31,1.32,2.31,2.53c0,1.43-0.88,2.75-2.31,2.75
		h-36.19v32.34h17.49c1.43,0,2.31,1.21,2.31,2.64c0,1.1-0.66,2.42-2.31,2.42h-17.49v35.42c0,1.65-1.32,2.31-2.75,2.31
		c-1.32,0-2.75-0.66-2.75-2.31V55.215z"/>
	<path fill="#FFFFFF" d="M179.095,55.104c0-1.21,0.88-2.31,2.42-2.31h18.81c12.431,0,23.21,5.17,23.21,21.34
		c0,13.86-7.92,19.58-17.93,21.01l17.601,34.1c0.22,0.44,0.329,0.88,0.329,1.32c0,1.43-1.1,2.75-2.97,2.75
		c-1.32,0-2.53-2.2-3.41-3.85l-17.27-33.77h-15.29v35.09c0,1.65-1.32,2.42-2.75,2.42c-1.32,0-2.75-0.77-2.75-2.42V55.104z
		 M184.595,58.075v32.56h15.729c10.45,0,17.71-4.62,17.71-16.39c0-11.66-7.26-16.17-17.71-16.17H184.595z"/>
	<path fill="#FFFFFF" d="M114.306,252.135l-32.34-63.359v65.01c0,1.65-1.32,2.42-2.75,2.42c-1.32,0-2.75-0.77-2.75-2.42v-75.68
		c0-1.76,1.32-2.311,2.75-2.311c1.98,0,3.52,2.641,4.51,4.51l31.79,62.811v-65.01c0-1.65,1.43-2.311,2.75-2.311
		c1.43,0,2.75,0.66,2.75,2.311v75.68c0,1.65-1.32,2.42-2.75,2.42C116.616,256.205,115.296,254.006,114.306,252.135z"/>
	<path fill="#FFFFFF" d="M221.225,175.795c1.54,0,2.31,1.211,2.31,2.529c0,1.32-0.66,2.75-2.31,2.75h-18.92v72.711
		c0,1.65-1.431,2.42-2.75,2.42c-1.431,0-2.75-0.77-2.75-2.42v-72.711h-19.141c-1.43,0-2.31-1.318-2.31-2.639s0.88-2.641,2.31-2.641
		H221.225z"/>
</g>
</svg>
